# xmcd CD database file
#
# Track frame offsets:
#	150
#	19687
#	46050
#	68150
#	109400
#	141412
#	167775
#	201362
#	225675
#	250762
#
# Disc length: 3712 seconds
#
# Revision: 0
# Processed by: cddbd v1.5PL3 Copyright (c) Steve Scherf et al.
# Submitted via: CDex 1.51
#
DISCID=8b0e7e0a
DTITLE=Keiji Matsushima - Brand New
DYEAR=1900
DGENRE=Jazz
TTITLE0=brand new
TTITLE1=driftin'
TTITLE2=F.B.I.
TTITLE3=secret love
TTITLE4=lament
TTITLE5=if I were a bell
TTITLE6=pensativa
TTITLE7=nommo
TTITLE8=what's new
TTITLE9=speedball
EXTD=
EXTT0=
EXTT1=
EXTT2=
EXTT3=
EXTT4=
EXTT5=
EXTT6=
EXTT7=
EXTT8=
EXTT9=
PLAYORDER=
